<?xml version="1.0" encoding="utf-8"?>
<!-- Generator: Adobe Illustrator 21.1.0, SVG Export Plug-In . SVG Version: 6.00 Build 0)  -->
<svg version="1.1" id="Layer_1" xmlns="http://www.w3.org/2000/svg" xmlns:xlink="http://www.w3.org/1999/xlink" x="0px" y="0px"
	 viewBox="0 0 286 54" enable-background="new 0 0 286 54" xml:space="preserve">
<g>
	<g>
		<g>
			<path d="M161.1,12.7c-3.6,0-6.4,1.2-8.3,3.6V0.2h-2.6l-2.7,4.4v33.7h5v-3.5c0.9,1.3,2.1,2.3,3.7,3c1.5,0.7,3.2,1.1,5,1.1
				c3.5,0,6.4-1.2,8.7-3.7c2.3-2.5,3.4-5.6,3.4-9.3c0-3.7-1.2-6.8-3.5-9.3C167.5,14,164.6,12.7,161.1,12.7z M165.6,31.6
				c-1.5,1.5-3.3,2.3-5.4,2.3c-2.1,0-3.8-0.7-5.3-2.1c-1.5-1.4-2.2-3.4-2.2-6.1c0-2.6,0.7-4.7,2.2-6.1c1.5-1.4,3.2-2.1,5.3-2.1
				c2.2,0,4,0.8,5.4,2.3c1.5,1.5,2.2,3.5,2.2,5.8C167.8,28.1,167.1,30.1,165.6,31.6z"/>
			<path d="M181.9,16.5v-3.2h-5v24.9h5.3V24.9c0-2.2,0.7-3.9,2.1-5.1c1.4-1.2,3.1-1.8,5.2-1.8h1.6v-4.7c-0.6-0.2-1.3-0.3-2-0.3
				C186,13,183.6,14.2,181.9,16.5z"/>
			<path d="M204.4,12.7c-3.7,0-6.8,1.3-9.3,3.8c-2.5,2.5-3.8,5.6-3.8,9.2c0,3.7,1.3,6.7,3.8,9.2c2.5,2.5,5.6,3.8,9.3,3.8
				c3.7,0,6.8-1.3,9.4-3.8c2.6-2.5,3.9-5.6,3.9-9.3c0-3.7-1.3-6.7-3.9-9.2C211.2,14,208.1,12.7,204.4,12.7z M209.9,31.5
				c-1.5,1.5-3.3,2.3-5.5,2.3c-2.2,0-4.1-0.8-5.5-2.3c-1.5-1.5-2.2-3.5-2.2-5.8c0-2.3,0.7-4.3,2.2-5.8c1.5-1.5,3.3-2.3,5.6-2.4
				c2.2,0,4,0.8,5.5,2.4c1.5,1.5,2.2,3.5,2.2,5.8C212.2,28.1,211.4,30,209.9,31.5z"/>
			<polygon points="221.2,4.5 221.2,38.2 226.5,38.2 226.5,0.2 223.9,0.2 			"/>
			<polygon points="243,13.3 236.4,13.3 226.7,24.2 237.5,38.2 243.9,38.2 233,24.2 			"/>
			<path d="M256,12.7c-3.6,0-6.7,1.3-9.2,3.8c-2.5,2.5-3.7,5.6-3.7,9.3c0,3.7,1.3,6.8,3.8,9.3c2.5,2.5,5.7,3.7,9.6,3.7
				c3.8,0,7.1-1.3,9.9-4l-2.5-3.7c-2.2,2-4.6,2.9-7.3,2.9c-2.2,0-4-0.6-5.4-1.7c-1.5-1.1-2.3-2.8-2.7-4.8h18.6
				c0.3-1.2,0.4-2.3,0.4-3.3c0-3.3-1.1-6-3.3-8.2C262,13.8,259.3,12.7,256,12.7z M248.6,23.3c0.4-1.9,1.3-3.3,2.6-4.4
				c1.3-1.1,2.8-1.6,4.6-1.6c1.8,0,3.3,0.5,4.5,1.6c1.2,1.1,1.8,2.6,1.9,4.4H248.6z"/>
			<path d="M283.2,13c-3.1,0-5.5,1.2-7.3,3.5v-3.2h-5v24.9h5.3V24.9c0-2.2,0.7-3.9,2.1-5.1c1.4-1.2,3.1-1.8,5.2-1.8h1.6v-4.7
				C284.7,13.1,284,13,283.2,13z"/>
			<path d="M116.2,19.6c0-6.5-7.4-7.2-10.5-7.2c-2.9,0-5.9,0.4-8.2,2.2c-2.3,1.8-2.5,3.8-2.6,5.6h7.4c0.2-0.9,0.6-2.9,3.9-2.9
				c2.6,0,2.7,1.9,2.8,3.1v1.3c-3.1,0.6-7.9,1.4-9.9,2.3c-2.1,0.9-5.3,3.2-5.3,7.2c0,3.5,2.4,7.6,8.2,7.6c3.7,0,5.8-1.6,7.7-3v2.3
				h7.2c-0.6-0.9-0.7-1.2-0.7-3.9V19.6z M106.4,32.5c-0.8,0.5-1.6,0.8-2.5,0.8c-1.7,0-2.8-1.3-2.8-2.5c0-1.9,1.9-2.6,3.2-3.1
				l4.7-1.6C108.9,28.7,108.8,31,106.4,32.5z"/>
			<polygon points="141.3,13 133.4,13 129.8,19.4 126.5,13 118.2,13 125.8,24.5 117.3,38.1 125.4,38.1 129.6,30.3 134.3,38.1 
				142.2,38.1 133.7,24.7 			"/>
		</g>
	</g>
	<polygon fill="#D0AE1B" points="40.1,18.4 45.5,27 28.7,53.8 35.3,53.8 39.5,53.8 46,53.8 54.1,40.9 62.1,53.8 79.4,53.8 62.7,27 
		68.4,18 68.4,18 79.5,0.2 62.2,0.2 54.1,13.1 48.8,4.5 46.1,0.2 45.7,0.2 45.3,0.2 44.9,0.2 41,0.2 40.7,0.2 39.6,0.2 39.2,0.2 
		35.3,0.2 34.9,0.2 34.5,0.2 34.1,0.2 31.4,4.5 0.7,53.8 7.2,53.8 11.5,53.8 18,53.8 	"/>
</g>
</svg>
