<svg xmlns="http://www.w3.org/2000/svg" height="24" width="190" style="vertical-align: middle">
    <g fill="#00529e">
        <path d="M-.002 2.4934v1.6647h6.8663v19.3873h4.7483V4.158h6.8663V-.0384H2.3893C1.057-.0384-.002 1.1408-.002 2.4934z"></path>
        <path d="M15.0348 23.5464h4.6115v-9.5376c0-2.6705 1.264-4.0231 3.7918-4.0231h1.5372v-4.786h-.649c-6.0466 0-9.155 2.948-9.2915 8.8785v9.4682zM27.7755-.0392v3.6068h4.5434V2.215c.0342-1.4913-.6832-2.2543-2.1862-2.2543h-2.357zm0 5.2371v18.3467h4.5434V7.4176c0-1.4913-.7173-2.2196-2.1862-2.2196h-2.357zM39.4256 2.2854c0-1.526-.7515-2.3237-2.2546-2.3237h-2.2888v15.6416c0 5.5145 2.8354 8.2542 8.4718 8.2196 5.6024-.104 8.4033-3.1908 8.4033-9.2947 0-6.2428-2.3912-9.4334-7.2079-9.6068-2.2546 0-3.9626.9364-5.124 2.844V2.2856zm3.8602 6.7631c2.4595 0 3.7233 1.7341 3.8258 5.2717 0 3.7108-1.2981 5.5836-3.8942 5.5836-2.5962 0-3.8259-1.8728-3.7918-5.5836.1366-3.5377 1.4006-5.2717 3.8602-5.2717zM69.0073 5.1973h-2.323c-1.503 0-2.2204.763-2.1862 2.289v9.6762c0 2.0462-1.0248 3.052-3.0744 3.052s-3.0745-1.0058-3.0745-3.052V5.1972h-4.5435v11.0287c0 3.0866.7857 5.0983 2.357 6.104 1.5714 1.0404 3.2454 1.5606 5.124 1.5606 1.9472 0 3.7235-.4855 5.329-1.422 1.6055-1.0057 2.3912-3.0865 2.3912-6.2427V5.197zM86.3936 23.5464V12.7602c.0341-5.237-2.4937-7.8382-7.652-7.8382s-7.7544 2.6012-7.7544 7.8382v10.7862h4.6116V11.824c.0341-1.9075 1.059-2.844 3.0744-2.844 2.0155 0 3.0401.9365 3.1429 2.844v9.4333c0 1.4566.7515 2.185 2.2546 2.289h2.3229zM94.799 20.1452c-1.4347 0-2.1863-.6937-2.2887-2.1503 0-1.3526.9223-2.2196 2.7328-2.5665 1.3322-.2774 2.562-.659 3.621-1.1098v1.6994c0 2.6012-1.5373 4.1271-4.065 4.1271zm1.059-11.445c1.8788 0 2.8353.5201 2.9377 1.5606 0 1.0057-.9906 1.5953-2.9377 1.8381-4.5775.4509-7.7204 1.63-7.8228 6.0345 0 4.0577 3.006 6.104 7.3444 5.7571 4.8847-.3468 7.8911-2.6011 7.8911-7.6648V9.983c-.1025-3.3988-2.6303-5.0637-7.6176-5.0637-4.1675 0-6.5246 1.6648-7.0711 5.0637h4.5435c.239-.867 1.1272-1.2832 2.7328-1.2832z"></path>
    </g>
    <g fill="#f0002d">
        <path d="M113.52 4.922c-5.4657 0-8.1985 3.156-8.1985 9.5376 0 6.3123 2.7328 9.5028 8.1984 9.5028s8.2325-3.1908 8.2325-9.5028c0-6.3813-2.767-9.5376-8.2325-9.5376zm0 4.0577c2.3228 0 3.4844 1.7688 3.4844 5.341-.0341 3.6418-1.1956 5.5146-3.5185 5.5146s-3.5186-1.8035-3.5526-5.3757c0-3.6416 1.1956-5.4796 3.587-5.4796zM139.345 23.5464V12.7602c.0342-5.237-2.4936-7.8382-7.6519-7.8382s-7.7544 2.6012-7.7544 7.8382v10.7862h4.6116V11.824c.0341-1.9075 1.059-2.844 3.0744-2.844 2.0155 0 3.0402.9365 3.1429 2.844v9.4333c0 1.4566.7515 2.185 2.2546 2.289h2.3229zM143.7515-.0392h-2.357v23.5838h4.5434V2.2154c0-1.214-.9907-2.2544-2.1863-2.2544zM149.183-.0392v3.6068h4.5435V2.215c.0342-1.4913-.6832-2.2543-2.1862-2.2543h-2.357zm0 5.2371v18.3467h4.5435V7.4176c0-1.4913-.7173-2.2196-2.1862-2.2196h-2.357zM171.6946 23.5464V12.7602c.0341-5.237-2.4937-7.8382-7.652-7.8382s-7.7544 2.6012-7.7544 7.8382v10.7862h4.6116V11.824c.0341-1.9075 1.059-2.844 3.0744-2.844 2.0155 0 3.0401.9365 3.1429 2.844v9.4333c0 1.4566.7515 2.185 2.2545 2.289h2.323zM189.696 17.9276h-3.3477c-.6149 0-1.1273.208-1.5372.659-.8881.867-1.8788 1.3179-2.9377 1.3179-2.2205 0-3.4161-1.422-3.587-4.2311h11.683c.3416-7.1791-2.357-10.7514-8.096-10.7514-5.4997.0347-8.2669 3.156-8.2669 9.3988s2.7328 9.4682 8.1985 9.6416c4.4407 0 6.9003-2.1502 7.8911-6.0345zm-7.8911-9.2253c1.9471 0 3.0744 1.2485 3.3477 3.6762h-6.7979c.3416-2.4277 1.503-3.6762 3.4502-3.6762z"></path>
    </g>
</svg>